PathFileType	4	(X/Y/Z)	C:\Users\italobelli\Desktop\GitHub\PTbot_officialCBL\Personal_Results\FLX21_noisy2.trc
DataRate	CameraRate	NumFrames	NumMarkers	Units	OrigDataRate	OrigDataStartFrame	OrigNumFrames
107.000000	107.000000	21	9	m	107.000000	563	750
Frame#	Time		gu		centelbow		EpL		centpxt8		centijc7		ij		ts		aa		ai
			X1	Y1	Z1	X2	Y2	Z2	X3	Y3	Z3	X4	Y4	Z4	X5	Y5	Z5	X6	Y6	Z6	X7	Y7	Z7	X8	Y8	Z8	X9	Y9	Z9

563	5.2523	-0.068414	-0.017596	0.16273	-0.12175	-0.2612	0.20506	-0.10461	-0.25728	0.23228	-0.046816	-0.15316	-0.008669	-0.046816	0.031938	-0.008669	0	0	0	-0.12985	0.032608	0.055533	-0.093221	0.017691	0.16794	-0.15354	-0.078367	0.053968
564	5.2617	-0.068407	-0.017648	0.16269	-0.12254	-0.26125	0.20465	-0.10546	-0.25743	0.23191	-0.046816	-0.15316	-0.008669	-0.046816	0.031938	-0.008669	0	0	0	-0.12975	0.03263	0.055517	-0.093235	0.017655	0.16796	-0.15342	-0.078347	0.053873
565	5.271	-0.068401	-0.017697	0.16265	-0.12331	-0.2613	0.20424	-0.10628	-0.25758	0.23153	-0.046816	-0.15316	-0.008669	-0.046816	0.031938	-0.008669	0	0	0	-0.12965	0.032651	0.055501	-0.093249	0.01762	0.16798	-0.1533	-0.078328	0.05378
566	5.2804	-0.068396	-0.017745	0.16261	-0.12406	-0.26134	0.20383	-0.10709	-0.25773	0.23116	-0.046816	-0.15316	-0.008669	-0.046816	0.031938	-0.008669	0	0	0	-0.12955	0.032671	0.055485	-0.093264	0.017586	0.168	-0.15318	-0.078309	0.053687
567	5.2897	-0.068391	-0.017791	0.16257	-0.1248	-0.26138	0.20343	-0.10788	-0.25787	0.2308	-0.046816	-0.15316	-0.008669	-0.046816	0.031938	-0.008669	0	0	0	-0.12946	0.032691	0.055468	-0.09328	0.017554	0.16802	-0.15306	-0.078292	0.053597
568	5.2991	-0.068388	-0.017834	0.16254	-0.12551	-0.26141	0.20303	-0.10865	-0.258	0.23043	-0.046816	-0.15316	-0.008669	-0.046816	0.031938	-0.008669	0	0	0	-0.12937	0.03271	0.055451	-0.093296	0.017523	0.16803	-0.15295	-0.078275	0.053508
569	5.3084	-0.068386	-0.017876	0.1625	-0.1262	-0.26145	0.20264	-0.1094	-0.25813	0.23007	-0.046816	-0.15316	-0.008669	-0.046816	0.031938	-0.008669	0	0	0	-0.12928	0.032729	0.055433	-0.093313	0.017493	0.16805	-0.15283	-0.078259	0.05342
570	5.3178	-0.068385	-0.017916	0.16246	-0.12688	-0.26148	0.20226	-0.11014	-0.25825	0.22972	-0.046816	-0.15316	-0.008669	-0.046816	0.031938	-0.008669	0	0	0	-0.1292	0.032747	0.055415	-0.093331	0.017465	0.16807	-0.15272	-0.078245	0.053335
571	5.3271	-0.068387	-0.017953	0.16243	-0.12754	-0.2615	0.20188	-0.11085	-0.25837	0.22937	-0.046816	-0.15316	-0.008669	-0.046816	0.031938	-0.008669	0	0	0	-0.12912	0.032765	0.055397	-0.093351	0.017439	0.16808	-0.15261	-0.078231	0.053252
572	5.3364	-0.068391	-0.017987	0.1624	-0.12817	-0.26153	0.20151	-0.11153	-0.25848	0.22903	-0.046816	-0.15316	-0.008669	-0.046816	0.031938	-0.008669	0	0	0	-0.12904	0.032782	0.055378	-0.093371	0.017414	0.1681	-0.15251	-0.078218	0.053171
573	5.3458	-0.068397	-0.018019	0.16236	-0.12879	-0.26155	0.20115	-0.1122	-0.25858	0.22869	-0.046816	-0.15316	-0.008669	-0.046816	0.031938	-0.008669	0	0	0	-0.12897	0.032798	0.055359	-0.093392	0.017391	0.16811	-0.15241	-0.078205	0.053092
574	5.3551	-0.068406	-0.018049	0.16233	-0.12939	-0.26156	0.20079	-0.11285	-0.25868	0.22836	-0.046816	-0.15316	-0.008669	-0.046816	0.031938	-0.008669	0	0	0	-0.1289	0.032814	0.055339	-0.093415	0.017371	0.16812	-0.15231	-0.078194	0.053015
575	5.3645	-0.068418	-0.018076	0.1623	-0.12996	-0.26157	0.20045	-0.11348	-0.25876	0.22804	-0.046816	-0.15316	-0.008669	-0.046816	0.031938	-0.008669	0	0	0	-0.12883	0.032829	0.055319	-0.093439	0.017352	0.16813	-0.15222	-0.078184	0.052941
576	5.3738	-0.068433	-0.0181	0.16228	-0.13052	-0.26158	0.20011	-0.11408	-0.25885	0.22773	-0.046816	-0.15316	-0.008669	-0.046816	0.031938	-0.008669	0	0	0	-0.12877	0.032843	0.055299	-0.093464	0.017335	0.16814	-0.15213	-0.078175	0.05287
577	5.3832	-0.068451	-0.018121	0.16225	-0.13106	-0.26158	0.19978	-0.11466	-0.25892	0.22743	-0.046816	-0.15316	-0.008669	-0.046816	0.031938	-0.008669	0	0	0	-0.12871	0.032856	0.055279	-0.093492	0.017321	0.16815	-0.15204	-0.078166	0.052801
578	5.3925	-0.068473	-0.018139	0.16222	-0.13157	-0.26158	0.19946	-0.11523	-0.25898	0.22713	-0.046816	-0.15316	-0.008669	-0.046816	0.031938	-0.008669	0	0	0	-0.12866	0.032869	0.055257	-0.09352	0.017309	0.16815	-0.15197	-0.078159	0.052735
579	5.4019	-0.068499	-0.018154	0.1622	-0.13207	-0.26158	0.19916	-0.11576	-0.25904	0.22685	-0.046816	-0.15316	-0.008669	-0.046816	0.031938	-0.008669	0	0	0	-0.12861	0.03288	0.055236	-0.093551	0.017299	0.16816	-0.15189	-0.078152	0.052672
580	5.4112	-0.068529	-0.018166	0.16218	-0.13254	-0.26157	0.19886	-0.11628	-0.25908	0.22657	-0.046816	-0.15316	-0.008669	-0.046816	0.031938	-0.008669	0	0	0	-0.12856	0.032891	0.055214	-0.093584	0.017292	0.16816	-0.15183	-0.078147	0.052612
581	5.4206	-0.068564	-0.018175	0.16216	-0.133	-0.26155	0.19857	-0.11677	-0.25912	0.22631	-0.046816	-0.15316	-0.008669	-0.046816	0.031938	-0.008669	0	0	0	-0.12852	0.032901	0.055192	-0.093618	0.017287	0.16816	-0.15177	-0.078142	0.052555
582	5.4299	-0.068603	-0.01818	0.16214	-0.13343	-0.26153	0.1983	-0.11724	-0.25915	0.22605	-0.046816	-0.15316	-0.008669	-0.046816	0.031938	-0.008669	0	0	0	-0.12849	0.03291	0.05517	-0.093655	0.017285	0.16817	-0.15171	-0.078139	0.052502
583	5.4393	-0.068647	-0.018182	0.16213	-0.13384	-0.2615	0.19803	-0.11769	-0.25917	0.22581	-0.046816	-0.15316	-0.008669	-0.046816	0.031938	-0.008669	0	0	0	-0.12846	0.032918	0.055147	-0.093693	0.017285	0.16817	-0.15166	-0.078136	0.052452
